<?xml version="1.0" standalone="no"?><!DOCTYPE svg PUBLIC "-//W3C//DTD SVG 1.1//EN" "http://www.w3.org/Graphics/SVG/1.1/DTD/svg11.dtd"><svg t="1683786792871" class="icon" viewBox="0 0 1024 1024" version="1.1" xmlns="http://www.w3.org/2000/svg" p-id="1474" xmlns:xlink="http://www.w3.org/1999/xlink" width="200" height="200"><path d="M595.8656 358.5536l-55.296-44.5952 189.1328-234.7008 152.3712-28.5696 13.1072 69.8368-126.6176 23.7568z" fill="#6CCE25" p-id="1475"></path><path d="M765.696 335.9232c-31.6928-128.8704-146.5856-218.8288-279.3984-218.8288S238.592 207.104 206.8992 335.9232l-10.8032 44.032h580.4544l-10.8544-44.032z" fill="#ACED7A" p-id="1476"></path><path d="M136.5504 312.1664v183.296h65.2288l64.256 475.8528h447.0272l64.256-475.8528h66.6624v-183.296H136.5504z m447.6928 329.5744c-61.44 0-113.6128-22.9888-150.0672-39.0144-49.152-21.6576-108.1344 8.2944-108.7488 8.6016l-33.28-62.7712c3.6352-1.8944 89.4976-46.5408 170.5984-10.8544 66.2528 29.1328 126.976 50.3296 199.6288 13.9776l31.7952 63.5392c-38.7072 19.4048-75.7248 26.5216-109.9264 26.5216z" fill="#6CCE25" p-id="1477"></path></svg>