<?xml version="1.0" standalone="no"?><!DOCTYPE svg PUBLIC "-//W3C//DTD SVG 1.1//EN" "http://www.w3.org/Graphics/SVG/1.1/DTD/svg11.dtd"><svg t="1683786935742" class="icon" viewBox="0 0 1024 1024" version="1.1" xmlns="http://www.w3.org/2000/svg" p-id="1772" xmlns:xlink="http://www.w3.org/1999/xlink" width="200" height="200"><path d="M101.888 138.5984h412.7744v254.976H101.888z" fill="#FECC87" p-id="1773"></path><path d="M972.5952 630.4768a187.19744 187.19744 0 0 0-150.6304-94.7712V451.1744l52.6848-39.8336V256.9216H796.672v-63.488l-7.9872-8.8064s-48.2816-53.1456-60.2112-66.4064l-15.7696-17.5616-21.0432 10.752c-11.0592 5.632-51.8656 26.624-51.8656 26.624l28.1088 54.6304 30.7712-15.7696c12.1344 13.4144 27.4432 30.2592 36.608 40.3456v39.7312h-166.8608v135.4752h52.1216v52.9408l-77.1072 143.6672H479.232l39.4752-65.6384v-92.672l-430.336 0.3584v124.9792h39.7824c-71.8848 35.7376-94.9248 115.5072-96.6656 157.3376l-1.3312 32h37.2736c11.52 91.904 90.2144 163.2768 185.1904 163.2768 75.9808 0 143.7696-46.2336 172.3392-114.9952h212.6336c19.1488 45.8752 56.32 82.9952 102.9632 101.6832 22.4256 9.0112 45.824 13.4656 69.4272 13.4656 36.7104 0 74.0352-10.8032 109.2608-32.0512 18.432-11.1104 34.0992-26.7264 45.2096-45.056 39.9872-66.2016 42.9568-139.52 8.1408-201.2672z" fill="#FF9432" p-id="1774"></path><path d="M216.576 230.2464h182.4256v71.68H216.576zM809.8816 813.7728c-50.6368 0-91.8528-41.216-91.8528-91.8528s41.216-91.8528 91.8528-91.8528 91.8528 41.216 91.8528 91.8528-41.216 91.8528-91.8528 91.8528z m0-111.9744c-11.1104 0-20.1728 9.0624-20.1728 20.1728s9.0624 20.1728 20.1728 20.1728 20.1728-9.0624 20.1728-20.1728c0-11.1616-9.0624-20.1728-20.1728-20.1728z" fill="#FFFFFF" p-id="1775"></path><path d="M252.5696 813.7728c-50.6368 0-91.8528-41.216-91.8528-91.8528s41.216-91.8528 91.8528-91.8528 91.8528 41.216 91.8528 91.8528-41.216 91.8528-91.8528 91.8528z m0-111.9744c-11.1104 0-20.1728 9.0624-20.1728 20.1728s9.0624 20.1728 20.1728 20.1728 20.1728-9.0624 20.1728-20.1728c0-11.1616-9.0624-20.1728-20.1728-20.1728z" fill="#FFFFFF" p-id="1776"></path></svg>