<?xml version="1.0" standalone="no"?><!DOCTYPE svg PUBLIC "-//W3C//DTD SVG 1.1//EN" "http://www.w3.org/Graphics/SVG/1.1/DTD/svg11.dtd"><svg t="1683787017651" class="icon" viewBox="0 0 1024 1024" version="1.1" xmlns="http://www.w3.org/2000/svg" p-id="1921" xmlns:xlink="http://www.w3.org/1999/xlink" width="200" height="200"><path d="M380.8768 346.368c66.8672 0 121.2928-54.4256 121.2928-121.2928S447.744 103.7824 380.8768 103.7824 259.584 158.208 259.584 225.0752s54.4256 121.2928 121.2928 121.2928zM637.952 346.368c66.8672 0 121.2928-54.4256 121.2928-121.2928s-54.4256-121.2928-121.2928-121.2928-121.2928 54.4256-121.2928 121.2928 54.4256 121.2928 121.2928 121.2928zM832.6144 303.3088c-66.8672 0-121.2928 54.4256-121.2928 121.2928s54.4256 121.2928 121.2928 121.2928 121.2928-54.4256 121.2928-121.2928-54.4256-121.2928-121.2928-121.2928zM304.4864 424.6016c0-66.8672-54.4256-121.2928-121.2928-121.2928S61.9008 357.7344 61.9008 424.6016s54.4256 121.2928 121.2928 121.2928c66.9184 0 121.2928-54.3744 121.2928-121.2928z" fill="#CBBCFD" p-id="1922"></path><path d="M868.1984 755.0976c4.6592-88.2176-52.4288-164.096-131.84-188.2624-27.5968-8.3968-49.6128-28.6208-61.7984-54.784-29.6448-63.6416-94.2592-107.8784-169.0112-107.8784-75.6224 0-140.8512 45.2608-170.0352 110.1312-11.9296 26.5728-34.2528 46.6432-61.3376 57.2416-73.216 28.672-123.9552 102.4512-118.016 186.9312 6.0416 85.9136 71.6288 157.44 156.7232 170.6496 53.6064 8.2944 105.5232-6.8608 145.0496-38.2976 15.4112-12.2368 34.4576-18.944 54.1184-18.944s38.7584 6.7072 54.1184 18.944c39.4752 31.4368 91.392 46.592 144.9984 38.2976 86.4256-13.3632 152.4224-86.784 157.0304-174.0288z" fill="#987EFB" p-id="1923"></path><path d="M621.1584 831.5904c-113.2032-97.28-211.3024-5.3248-215.4496-1.3312l-49.664-51.6608c51.1488-49.2032 182.1696-112.7424 311.8592-1.3312l-46.7456 54.3232z" fill="#FFFFFF" p-id="1924"></path></svg>