<?xml version="1.0" standalone="no"?><!DOCTYPE svg PUBLIC "-//W3C//DTD SVG 1.1//EN" "http://www.w3.org/Graphics/SVG/1.1/DTD/svg11.dtd"><svg t="1683787126070" class="icon" viewBox="0 0 1024 1024" version="1.1" xmlns="http://www.w3.org/2000/svg" p-id="2543" xmlns:xlink="http://www.w3.org/1999/xlink" width="200" height="200"><path d="M864.7168 343.3472c-25.8048 0-51.6608-10.4448-70.0928-27.3408-30.9248-28.3136-44.7488-80.4352-2.048-128l53.3504 47.872c-13.568 15.1552-8.6016 21.9648-2.8672 27.2384 9.0112 8.2432 25.0368 11.9296 32.1536 4.3008 32.512-34.2528-4.608-73.2672-8.96-77.6192l-17.3056-17.3056 40.3456-92.16 65.6384 28.7744-21.7088 49.5616c28.5696 40.704 44.6976 104.6528-5.888 157.9008-17.4592 18.7392-39.9872 26.7776-62.6176 26.7776z" fill="#96BBFF" p-id="2544"></path><path d="M885.5552 778.2912l-110.4896-49.7152-11.4176-127.744-102.0416-40.448C745.984 506.88 817.152 488.0384 818.2272 487.7312l24.064-6.0928L855.04 368.5888l-134.912-48.5888 36.1984-120.6784-54.2208-70.9632-18.8416 0.9216c-5.7856 0.3072-84.224 4.7616-177.408 37.12l0.3584-1.7408-179.5584-37.8368-107.1104 139.1616-129.8432 109.1072-21.1968 118.528 133.2224 227.7376c20.736 54.7328 64.9216 127.8464 138.0352 171.6224 60.8256 36.4032 163.5328 64.1536 311.0912-5.4784 115.2 38.8096 216.064 51.712 220.4672 52.2752l50.0224 6.2464-35.7888-167.7312z m-330.3424-524.288c22.784 0 41.2672 18.4832 41.2672 41.2672s-18.4832 41.2672-41.2672 41.2672-41.2672-18.4832-41.2672-41.2672 18.4832-41.2672 41.2672-41.2672z m-213.9136 381.2864c-22.1184 0-44.4416-6.1952-65.3824-21.8112l-14.9504-11.1616 0.6144-18.6368c4.096-128.6656 98.048-168.3968 102.0416-169.984l27.0336 66.3552 0.4608-0.2048c-2.048 0.8704-45.056 20.6336-55.6544 83.1488 36.4032 5.4784 82.8928-37.888 83.456-38.4l49.92 51.456c-27.3408 26.4704-76.8 59.2384-127.5392 59.2384z m87.3984-138.5472l-6.144-4.9664-3.4816-7.0656c-30.5152-61.7472-20.7872-136.3456-20.3264-139.4688l35.5328 4.864 35.5328 4.7616c-0.0512 0.512-6.2976 50.1248 10.24 90.7264 29.7472 20.1216 62.976 18.0736 63.3344 18.0224l5.9904 71.424c-1.3312 0.1024-4.6592 0.3584-9.6256 0.3584-20.5312 0-68.1984-4.1472-111.0528-38.656z m161.3824 265.472c-60.5184-0.6144-88.7296-13.568-94.464-25.6512-5.0176-10.6496 3.6352-29.1328 9.5232-35.6352l1.536-1.8432c38.912-49.6128 82.9952-88.6272 125.44-118.8352l-42.0352 181.9648z" fill="#3A77FF" p-id="2545"></path></svg>